<mxfile host="app.diagrams.net" modified="2022-01-28T14:38:20.713Z" agent="5.0 (Windows NT 10.0; Win64; x64) AppleWebKit/537.36 (KHTML, like Gecko) Chrome/97.0.4692.99 Safari/537.36" etag="4xH0dVic-mC5V3P7qduq" version="16.4.11" type="github">
  <diagram id="C5RBs43oDa-KdzZeNtuy" name="Page-1">
    <mxGraphModel dx="1185" dy="762" grid="1" gridSize="10" guides="1" tooltips="1" connect="1" arrows="1" fold="1" page="1" pageScale="1" pageWidth="827" pageHeight="1169" math="0" shadow="0">
      <root>
        <mxCell id="WIyWlLk6GJQsqaUBKTNV-0" />
        <mxCell id="WIyWlLk6GJQsqaUBKTNV-1" parent="WIyWlLk6GJQsqaUBKTNV-0" />
        <mxCell id="6I1QFMfVsTtFcKt_bIl5-2" value="type livraison" style="edgeStyle=orthogonalEdgeStyle;rounded=0;orthogonalLoop=1;jettySize=auto;html=1;" edge="1" parent="WIyWlLk6GJQsqaUBKTNV-1" source="6I1QFMfVsTtFcKt_bIl5-0" target="6I1QFMfVsTtFcKt_bIl5-1">
          <mxGeometry x="-0.2381" relative="1" as="geometry">
            <mxPoint as="offset" />
          </mxGeometry>
        </mxCell>
        <mxCell id="6I1QFMfVsTtFcKt_bIl5-3" value="client" style="edgeLabel;html=1;align=center;verticalAlign=middle;resizable=0;points=[];" vertex="1" connectable="0" parent="6I1QFMfVsTtFcKt_bIl5-2">
          <mxGeometry x="-0.7714" relative="1" as="geometry">
            <mxPoint y="16" as="offset" />
          </mxGeometry>
        </mxCell>
        <mxCell id="6I1QFMfVsTtFcKt_bIl5-6" value="date livraison" style="edgeLabel;html=1;align=center;verticalAlign=middle;resizable=0;points=[];" vertex="1" connectable="0" parent="6I1QFMfVsTtFcKt_bIl5-2">
          <mxGeometry x="0.2667" relative="1" as="geometry">
            <mxPoint as="offset" />
          </mxGeometry>
        </mxCell>
        <mxCell id="6I1QFMfVsTtFcKt_bIl5-7" value="FCH Temps" style="edgeLabel;html=1;align=center;verticalAlign=middle;resizable=0;points=[];" vertex="1" connectable="0" parent="6I1QFMfVsTtFcKt_bIl5-2">
          <mxGeometry x="0.619" y="-1" relative="1" as="geometry">
            <mxPoint as="offset" />
          </mxGeometry>
        </mxCell>
        <mxCell id="6I1QFMfVsTtFcKt_bIl5-0" value="passer une commande" style="strokeWidth=2;html=1;shape=mxgraph.flowchart.start_1;whiteSpace=wrap;" vertex="1" parent="WIyWlLk6GJQsqaUBKTNV-1">
          <mxGeometry x="340" y="200" width="100" height="60" as="geometry" />
        </mxCell>
        <mxCell id="6I1QFMfVsTtFcKt_bIl5-13" value="" style="edgeStyle=orthogonalEdgeStyle;rounded=0;orthogonalLoop=1;jettySize=auto;html=1;" edge="1" parent="WIyWlLk6GJQsqaUBKTNV-1" source="6I1QFMfVsTtFcKt_bIl5-1" target="6I1QFMfVsTtFcKt_bIl5-12">
          <mxGeometry relative="1" as="geometry" />
        </mxCell>
        <mxCell id="6I1QFMfVsTtFcKt_bIl5-1" value="Commande Recue" style="strokeWidth=2;html=1;shape=mxgraph.flowchart.start_1;whiteSpace=wrap;" vertex="1" parent="WIyWlLk6GJQsqaUBKTNV-1">
          <mxGeometry x="340" y="470" width="100" height="60" as="geometry" />
        </mxCell>
        <mxCell id="6I1QFMfVsTtFcKt_bIl5-19" style="edgeStyle=orthogonalEdgeStyle;rounded=0;orthogonalLoop=1;jettySize=auto;html=1;entryX=1;entryY=0.5;entryDx=0;entryDy=0;" edge="1" parent="WIyWlLk6GJQsqaUBKTNV-1" source="6I1QFMfVsTtFcKt_bIl5-10" target="6I1QFMfVsTtFcKt_bIl5-16">
          <mxGeometry relative="1" as="geometry">
            <Array as="points">
              <mxPoint x="660" y="910" />
            </Array>
          </mxGeometry>
        </mxCell>
        <mxCell id="6I1QFMfVsTtFcKt_bIl5-20" value="oui" style="edgeLabel;html=1;align=center;verticalAlign=middle;resizable=0;points=[];" vertex="1" connectable="0" parent="6I1QFMfVsTtFcKt_bIl5-19">
          <mxGeometry x="-0.8061" y="1" relative="1" as="geometry">
            <mxPoint as="offset" />
          </mxGeometry>
        </mxCell>
        <mxCell id="6I1QFMfVsTtFcKt_bIl5-10" value="jour livraison&lt;br&gt;FCH Temp&lt;br&gt;Livreur En Quai" style="rhombus;whiteSpace=wrap;html=1;strokeWidth=2;" vertex="1" parent="WIyWlLk6GJQsqaUBKTNV-1">
          <mxGeometry x="570" y="680" width="180" height="110" as="geometry" />
        </mxCell>
        <mxCell id="6I1QFMfVsTtFcKt_bIl5-14" style="edgeStyle=orthogonalEdgeStyle;rounded=0;orthogonalLoop=1;jettySize=auto;html=1;entryX=0.5;entryY=0;entryDx=0;entryDy=0;" edge="1" parent="WIyWlLk6GJQsqaUBKTNV-1" source="6I1QFMfVsTtFcKt_bIl5-12" target="6I1QFMfVsTtFcKt_bIl5-10">
          <mxGeometry relative="1" as="geometry" />
        </mxCell>
        <mxCell id="6I1QFMfVsTtFcKt_bIl5-15" value="oui" style="edgeLabel;html=1;align=center;verticalAlign=middle;resizable=0;points=[];" vertex="1" connectable="0" parent="6I1QFMfVsTtFcKt_bIl5-14">
          <mxGeometry x="-0.0182" y="-2" relative="1" as="geometry">
            <mxPoint x="-68" y="-2" as="offset" />
          </mxGeometry>
        </mxCell>
        <mxCell id="6I1QFMfVsTtFcKt_bIl5-17" value="" style="edgeStyle=orthogonalEdgeStyle;rounded=0;orthogonalLoop=1;jettySize=auto;html=1;" edge="1" parent="WIyWlLk6GJQsqaUBKTNV-1" source="6I1QFMfVsTtFcKt_bIl5-12" target="6I1QFMfVsTtFcKt_bIl5-16">
          <mxGeometry relative="1" as="geometry" />
        </mxCell>
        <mxCell id="6I1QFMfVsTtFcKt_bIl5-18" value="No" style="edgeLabel;html=1;align=center;verticalAlign=middle;resizable=0;points=[];" vertex="1" connectable="0" parent="6I1QFMfVsTtFcKt_bIl5-17">
          <mxGeometry x="-0.7053" y="1" relative="1" as="geometry">
            <mxPoint as="offset" />
          </mxGeometry>
        </mxCell>
        <mxCell id="6I1QFMfVsTtFcKt_bIl5-12" value="Type Livraison &lt;br&gt;=&lt;br&gt;A Livree" style="rhombus;whiteSpace=wrap;html=1;strokeWidth=2;" vertex="1" parent="WIyWlLk6GJQsqaUBKTNV-1">
          <mxGeometry x="320" y="580" width="140" height="110" as="geometry" />
        </mxCell>
        <mxCell id="6I1QFMfVsTtFcKt_bIl5-22" value="Commande Validee" style="edgeStyle=orthogonalEdgeStyle;rounded=0;orthogonalLoop=1;jettySize=auto;html=1;" edge="1" parent="WIyWlLk6GJQsqaUBKTNV-1" source="6I1QFMfVsTtFcKt_bIl5-16" target="6I1QFMfVsTtFcKt_bIl5-21">
          <mxGeometry relative="1" as="geometry">
            <Array as="points">
              <mxPoint x="390" y="980" />
              <mxPoint x="390" y="980" />
            </Array>
          </mxGeometry>
        </mxCell>
        <mxCell id="6I1QFMfVsTtFcKt_bIl5-16" value="Choix Magasinier" style="ellipse;whiteSpace=wrap;html=1;strokeWidth=2;" vertex="1" parent="WIyWlLk6GJQsqaUBKTNV-1">
          <mxGeometry x="330" y="880" width="120" height="60" as="geometry" />
        </mxCell>
        <mxCell id="6I1QFMfVsTtFcKt_bIl5-26" value="" style="edgeStyle=orthogonalEdgeStyle;rounded=0;orthogonalLoop=1;jettySize=auto;html=1;" edge="1" parent="WIyWlLk6GJQsqaUBKTNV-1" source="6I1QFMfVsTtFcKt_bIl5-21" target="6I1QFMfVsTtFcKt_bIl5-25">
          <mxGeometry relative="1" as="geometry" />
        </mxCell>
        <mxCell id="6I1QFMfVsTtFcKt_bIl5-21" value="Qte Dispo" style="ellipse;whiteSpace=wrap;html=1;strokeWidth=2;" vertex="1" parent="WIyWlLk6GJQsqaUBKTNV-1">
          <mxGeometry x="330" y="1040" width="120" height="60" as="geometry" />
        </mxCell>
        <mxCell id="6I1QFMfVsTtFcKt_bIl5-43" value="" style="edgeStyle=orthogonalEdgeStyle;rounded=0;orthogonalLoop=1;jettySize=auto;html=1;" edge="1" parent="WIyWlLk6GJQsqaUBKTNV-1" source="6I1QFMfVsTtFcKt_bIl5-25" target="6I1QFMfVsTtFcKt_bIl5-42">
          <mxGeometry relative="1" as="geometry">
            <Array as="points">
              <mxPoint x="390" y="1340" />
            </Array>
          </mxGeometry>
        </mxCell>
        <mxCell id="6I1QFMfVsTtFcKt_bIl5-25" value="Prete" style="ellipse;whiteSpace=wrap;html=1;strokeWidth=2;" vertex="1" parent="WIyWlLk6GJQsqaUBKTNV-1">
          <mxGeometry x="330" y="1180" width="120" height="60" as="geometry" />
        </mxCell>
        <mxCell id="6I1QFMfVsTtFcKt_bIl5-33" style="edgeStyle=orthogonalEdgeStyle;rounded=0;orthogonalLoop=1;jettySize=auto;html=1;" edge="1" parent="WIyWlLk6GJQsqaUBKTNV-1" target="6I1QFMfVsTtFcKt_bIl5-32">
          <mxGeometry relative="1" as="geometry">
            <mxPoint x="1060" y="1340" as="sourcePoint" />
          </mxGeometry>
        </mxCell>
        <mxCell id="6I1QFMfVsTtFcKt_bIl5-37" value="" style="edgeStyle=orthogonalEdgeStyle;rounded=0;orthogonalLoop=1;jettySize=auto;html=1;exitX=1;exitY=0.5;exitDx=0;exitDy=0;" edge="1" parent="WIyWlLk6GJQsqaUBKTNV-1" source="6I1QFMfVsTtFcKt_bIl5-28" target="6I1QFMfVsTtFcKt_bIl5-32">
          <mxGeometry relative="1" as="geometry">
            <mxPoint x="1060" y="1340" as="sourcePoint" />
          </mxGeometry>
        </mxCell>
        <mxCell id="6I1QFMfVsTtFcKt_bIl5-39" value="" style="edgeStyle=orthogonalEdgeStyle;rounded=0;orthogonalLoop=1;jettySize=auto;html=1;exitX=0.5;exitY=0;exitDx=0;exitDy=0;" edge="1" parent="WIyWlLk6GJQsqaUBKTNV-1" source="6I1QFMfVsTtFcKt_bIl5-28" target="6I1QFMfVsTtFcKt_bIl5-38">
          <mxGeometry relative="1" as="geometry">
            <mxPoint x="1000" y="1310" as="sourcePoint" />
            <Array as="points">
              <mxPoint x="980" y="1170" />
            </Array>
          </mxGeometry>
        </mxCell>
        <mxCell id="6I1QFMfVsTtFcKt_bIl5-28" value="Validee" style="ellipse;whiteSpace=wrap;html=1;strokeWidth=2;" vertex="1" parent="WIyWlLk6GJQsqaUBKTNV-1">
          <mxGeometry x="920" y="1310" width="120" height="60" as="geometry" />
        </mxCell>
        <mxCell id="6I1QFMfVsTtFcKt_bIl5-36" value="oui" style="edgeStyle=orthogonalEdgeStyle;rounded=0;orthogonalLoop=1;jettySize=auto;html=1;" edge="1" parent="WIyWlLk6GJQsqaUBKTNV-1" source="6I1QFMfVsTtFcKt_bIl5-32" target="6I1QFMfVsTtFcKt_bIl5-35">
          <mxGeometry relative="1" as="geometry" />
        </mxCell>
        <mxCell id="6I1QFMfVsTtFcKt_bIl5-32" value="jour livraison&lt;br&gt;FCH Temp&lt;br&gt;Livreur En Quai" style="rhombus;whiteSpace=wrap;html=1;strokeWidth=2;" vertex="1" parent="WIyWlLk6GJQsqaUBKTNV-1">
          <mxGeometry x="1170" y="1285" width="180" height="110" as="geometry" />
        </mxCell>
        <mxCell id="6I1QFMfVsTtFcKt_bIl5-48" value="" style="edgeStyle=orthogonalEdgeStyle;rounded=0;orthogonalLoop=1;jettySize=auto;html=1;" edge="1" parent="WIyWlLk6GJQsqaUBKTNV-1" source="6I1QFMfVsTtFcKt_bIl5-35" target="6I1QFMfVsTtFcKt_bIl5-47">
          <mxGeometry relative="1" as="geometry" />
        </mxCell>
        <mxCell id="6I1QFMfVsTtFcKt_bIl5-35" value="A Charger" style="ellipse;whiteSpace=wrap;html=1;strokeWidth=2;" vertex="1" parent="WIyWlLk6GJQsqaUBKTNV-1">
          <mxGeometry x="1460" y="1310" width="120" height="60" as="geometry" />
        </mxCell>
        <mxCell id="6I1QFMfVsTtFcKt_bIl5-38" value="Create Bon Livraison" style="ellipse;whiteSpace=wrap;html=1;strokeWidth=2;" vertex="1" parent="WIyWlLk6GJQsqaUBKTNV-1">
          <mxGeometry x="1190" y="1130" width="150" height="70" as="geometry" />
        </mxCell>
        <mxCell id="6I1QFMfVsTtFcKt_bIl5-44" style="edgeStyle=orthogonalEdgeStyle;rounded=0;orthogonalLoop=1;jettySize=auto;html=1;" edge="1" parent="WIyWlLk6GJQsqaUBKTNV-1" source="6I1QFMfVsTtFcKt_bIl5-42" target="6I1QFMfVsTtFcKt_bIl5-28">
          <mxGeometry relative="1" as="geometry" />
        </mxCell>
        <mxCell id="6I1QFMfVsTtFcKt_bIl5-45" style="edgeStyle=orthogonalEdgeStyle;rounded=0;orthogonalLoop=1;jettySize=auto;html=1;entryX=1;entryY=0.5;entryDx=0;entryDy=0;entryPerimeter=0;" edge="1" parent="WIyWlLk6GJQsqaUBKTNV-1" source="6I1QFMfVsTtFcKt_bIl5-42" target="6I1QFMfVsTtFcKt_bIl5-0">
          <mxGeometry relative="1" as="geometry">
            <Array as="points">
              <mxPoint x="715" y="1220" />
              <mxPoint x="860" y="1220" />
              <mxPoint x="860" y="230" />
            </Array>
          </mxGeometry>
        </mxCell>
        <mxCell id="6I1QFMfVsTtFcKt_bIl5-46" value="oui" style="edgeLabel;html=1;align=center;verticalAlign=middle;resizable=0;points=[];" vertex="1" connectable="0" parent="6I1QFMfVsTtFcKt_bIl5-45">
          <mxGeometry x="-0.9278" y="-1" relative="1" as="geometry">
            <mxPoint as="offset" />
          </mxGeometry>
        </mxCell>
        <mxCell id="6I1QFMfVsTtFcKt_bIl5-42" value="Modification" style="rhombus;whiteSpace=wrap;html=1;strokeWidth=2;" vertex="1" parent="WIyWlLk6GJQsqaUBKTNV-1">
          <mxGeometry x="650" y="1300" width="130" height="80" as="geometry" />
        </mxCell>
        <mxCell id="6I1QFMfVsTtFcKt_bIl5-52" value="" style="edgeStyle=orthogonalEdgeStyle;rounded=0;orthogonalLoop=1;jettySize=auto;html=1;" edge="1" parent="WIyWlLk6GJQsqaUBKTNV-1" source="6I1QFMfVsTtFcKt_bIl5-47" target="6I1QFMfVsTtFcKt_bIl5-51">
          <mxGeometry relative="1" as="geometry" />
        </mxCell>
        <mxCell id="6I1QFMfVsTtFcKt_bIl5-47" value="debut de Charge" style="ellipse;whiteSpace=wrap;html=1;strokeWidth=2;" vertex="1" parent="WIyWlLk6GJQsqaUBKTNV-1">
          <mxGeometry x="1840" y="1310" width="120" height="60" as="geometry" />
        </mxCell>
        <mxCell id="6I1QFMfVsTtFcKt_bIl5-54" value="" style="edgeStyle=orthogonalEdgeStyle;rounded=0;orthogonalLoop=1;jettySize=auto;html=1;" edge="1" parent="WIyWlLk6GJQsqaUBKTNV-1" source="6I1QFMfVsTtFcKt_bIl5-51" target="6I1QFMfVsTtFcKt_bIl5-53">
          <mxGeometry relative="1" as="geometry" />
        </mxCell>
        <mxCell id="6I1QFMfVsTtFcKt_bIl5-51" value="Fin Charge" style="ellipse;whiteSpace=wrap;html=1;strokeWidth=2;" vertex="1" parent="WIyWlLk6GJQsqaUBKTNV-1">
          <mxGeometry x="2040" y="1310" width="120" height="60" as="geometry" />
        </mxCell>
        <mxCell id="6I1QFMfVsTtFcKt_bIl5-56" value="" style="edgeStyle=orthogonalEdgeStyle;rounded=0;orthogonalLoop=1;jettySize=auto;html=1;" edge="1" parent="WIyWlLk6GJQsqaUBKTNV-1" source="6I1QFMfVsTtFcKt_bIl5-53" target="6I1QFMfVsTtFcKt_bIl5-55">
          <mxGeometry relative="1" as="geometry" />
        </mxCell>
        <mxCell id="6I1QFMfVsTtFcKt_bIl5-53" value="confermation BLs" style="ellipse;whiteSpace=wrap;html=1;strokeWidth=2;" vertex="1" parent="WIyWlLk6GJQsqaUBKTNV-1">
          <mxGeometry x="2240" y="1310" width="120" height="60" as="geometry" />
        </mxCell>
        <mxCell id="6I1QFMfVsTtFcKt_bIl5-58" value="" style="edgeStyle=orthogonalEdgeStyle;rounded=0;orthogonalLoop=1;jettySize=auto;html=1;" edge="1" parent="WIyWlLk6GJQsqaUBKTNV-1" source="6I1QFMfVsTtFcKt_bIl5-55" target="6I1QFMfVsTtFcKt_bIl5-57">
          <mxGeometry relative="1" as="geometry" />
        </mxCell>
        <mxCell id="6I1QFMfVsTtFcKt_bIl5-55" value="Depart" style="ellipse;whiteSpace=wrap;html=1;strokeWidth=2;" vertex="1" parent="WIyWlLk6GJQsqaUBKTNV-1">
          <mxGeometry x="2440" y="1310" width="120" height="60" as="geometry" />
        </mxCell>
        <mxCell id="6I1QFMfVsTtFcKt_bIl5-57" value="En Quai" style="ellipse;whiteSpace=wrap;html=1;strokeWidth=2;" vertex="1" parent="WIyWlLk6GJQsqaUBKTNV-1">
          <mxGeometry x="2640" y="1310" width="120" height="60" as="geometry" />
        </mxCell>
      </root>
    </mxGraphModel>
  </diagram>
</mxfile>
